FILE "AI Shougi 2 (Japan) (Track 1).bin" BINARY
  TRACK 01 MODE1/2352
    INDEX 01 00:00:00
FILE "AI Shougi 2 (Japan) (Track 2).bin" BINARY
  TRACK 02 MODE2/2352
    INDEX 00 00:00:00
    INDEX 01 00:02:00
FILE "AI Shougi 2 (Japan) (Track 3).bin" BINARY
  TRACK 03 AUDIO
    INDEX 00 00:00:00
    INDEX 01 00:02:00
    INDEX 02 00:03:00
    INDEX 03 00:03:02
    INDEX 04 00:04:16
    INDEX 05 00:04:18
    INDEX 06 00:05:25
    INDEX 07 00:05:27
    INDEX 08 00:06:28
    INDEX 09 00:06:30
    INDEX 10 00:07:31
    INDEX 11 00:07:33
    INDEX 12 00:08:33
    INDEX 13 00:08:35
    INDEX 14 00:09:35
    INDEX 15 00:09:37
    INDEX 16 00:10:38
    INDEX 17 00:10:40
    INDEX 18 00:11:40
    INDEX 19 00:11:42
    INDEX 20 00:12:42
    INDEX 21 00:12:44
    INDEX 22 00:13:44
    INDEX 23 00:13:46
    INDEX 24 00:14:45
    INDEX 25 00:14:47
    INDEX 26 00:15:57
    INDEX 27 00:15:59
    INDEX 28 00:16:59
    INDEX 29 00:16:61
    INDEX 30 00:17:58
    INDEX 31 00:17:60
    INDEX 32 00:18:61
    INDEX 33 00:18:63
    INDEX 34 00:19:64
    INDEX 35 00:19:66
    INDEX 36 00:20:69
    INDEX 37 00:20:71
    INDEX 38 00:21:71
    INDEX 39 00:21:73
    INDEX 40 00:23:05
    INDEX 41 00:23:07
    INDEX 42 00:24:16
    INDEX 43 00:24:18
    INDEX 44 00:25:13
    INDEX 45 00:25:15
    INDEX 46 00:26:24
    INDEX 47 00:26:26
    INDEX 48 00:27:25
    INDEX 49 00:27:27
    INDEX 50 00:28:28
    INDEX 51 00:28:30
    INDEX 52 00:29:30
    INDEX 53 00:29:32
    INDEX 54 00:30:47
    INDEX 55 00:30:49
    INDEX 56 00:31:49
    INDEX 57 00:31:51
    INDEX 58 00:32:44
    INDEX 59 00:32:46
    INDEX 60 00:33:45
    INDEX 61 00:33:47
    INDEX 62 00:34:46
    INDEX 63 00:34:48
    INDEX 64 00:35:51
    INDEX 65 00:35:53
    INDEX 66 00:36:48
    INDEX 67 00:36:50
    INDEX 68 00:37:51
    INDEX 69 00:37:53
    INDEX 70 00:38:52
    INDEX 71 00:38:54
    INDEX 72 00:39:59
FILE "AI Shougi 2 (Japan) (Track 4).bin" BINARY
  TRACK 04 AUDIO
    INDEX 00 00:00:00
    INDEX 01 00:02:00
    INDEX 02 00:03:00
    INDEX 03 00:03:02
    INDEX 04 00:04:08
    INDEX 05 00:04:10
    INDEX 06 00:05:19
    INDEX 07 00:05:21
    INDEX 08 00:06:23
    INDEX 09 00:06:25
    INDEX 10 00:07:19
    INDEX 11 00:07:21
    INDEX 12 00:08:15
    INDEX 13 00:08:17
    INDEX 14 00:09:08
    INDEX 15 00:09:10
    INDEX 16 00:10:06
    INDEX 17 00:10:08
    INDEX 18 00:11:08
    INDEX 19 00:11:10
    INDEX 20 00:12:09
    INDEX 21 00:12:11
    INDEX 22 00:13:18
    INDEX 23 00:13:20
    INDEX 24 00:14:15
    INDEX 25 00:14:17
    INDEX 26 00:15:18
    INDEX 27 00:15:20
    INDEX 28 00:16:13
    INDEX 29 00:16:15
    INDEX 30 00:17:13
    INDEX 31 00:17:15
    INDEX 32 00:18:19
    INDEX 33 00:18:21
    INDEX 34 00:19:20
    INDEX 35 00:19:22
    INDEX 36 00:20:22
    INDEX 37 00:20:24
    INDEX 38 00:21:25
    INDEX 39 00:21:27
    INDEX 40 00:22:30
    INDEX 41 00:22:32
    INDEX 42 00:23:31
    INDEX 43 00:23:33
    INDEX 44 00:24:37
    INDEX 45 00:24:39
    INDEX 46 00:25:40
    INDEX 47 00:25:42
    INDEX 48 00:26:50
    INDEX 49 00:26:52
    INDEX 50 00:27:58
    INDEX 51 00:27:60
    INDEX 52 00:28:65
    INDEX 53 00:28:67
    INDEX 54 00:29:74
    INDEX 55 00:30:01
    INDEX 56 00:31:02
    INDEX 57 00:31:04
    INDEX 58 00:32:12
    INDEX 59 00:32:14
    INDEX 60 00:33:18
    INDEX 61 00:33:20
    INDEX 62 00:34:17
    INDEX 63 00:34:19
    INDEX 64 00:35:25
    INDEX 65 00:35:27
    INDEX 66 00:36:38
    INDEX 67 00:36:40
    INDEX 68 00:37:44
    INDEX 69 00:37:46
    INDEX 70 00:38:52
    INDEX 71 00:38:54
    INDEX 72 00:39:65
    INDEX 73 00:39:67
    INDEX 74 00:39:69
FILE "AI Shougi 2 (Japan) (Track 5).bin" BINARY
  TRACK 05 AUDIO
    INDEX 00 00:00:00
    INDEX 01 00:02:00
    INDEX 02 00:03:01
    INDEX 03 00:03:03
    INDEX 04 00:04:04
    INDEX 05 00:04:06
    INDEX 06 00:05:06
    INDEX 07 00:05:08
    INDEX 08 00:06:06
    INDEX 09 00:06:08
    INDEX 10 00:07:11
    INDEX 11 00:07:13
    INDEX 12 00:08:12
    INDEX 13 00:08:14
    INDEX 14 00:09:11
    INDEX 15 00:09:13
    INDEX 16 00:10:14
    INDEX 17 00:10:16
    INDEX 18 00:11:20
    INDEX 19 00:11:22
    INDEX 20 00:13:04
    INDEX 21 00:13:06
    INDEX 22 00:14:51
    INDEX 23 00:14:53
    INDEX 24 00:15:38
    INDEX 25 00:15:40
    INDEX 26 00:16:11
    INDEX 27 00:16:13
    INDEX 28 00:16:68
    INDEX 29 00:16:70
    INDEX 30 00:17:50
    INDEX 31 00:17:52
    INDEX 32 00:18:32
    INDEX 33 00:18:34
    INDEX 34 00:19:09
    INDEX 35 00:19:11
    INDEX 36 00:19:61
    INDEX 37 00:19:63
    INDEX 38 00:20:40
    INDEX 39 00:20:42
    INDEX 40 00:21:08
    INDEX 41 00:21:10
    INDEX 42 00:21:52
    INDEX 43 00:21:54
    INDEX 44 00:22:41
    INDEX 45 00:22:43
    INDEX 46 00:23:30
    INDEX 47 00:23:32
    INDEX 48 00:24:09
    INDEX 49 00:24:11
    INDEX 50 00:24:73
    INDEX 51 00:25:00
    INDEX 52 00:25:62
    INDEX 53 00:25:64
    INDEX 54 00:26:45
    INDEX 55 00:26:47
    INDEX 56 00:27:28
    INDEX 57 00:27:30
    INDEX 58 00:28:21
    INDEX 59 00:28:23
    INDEX 60 00:29:20
    INDEX 61 00:29:22
    INDEX 62 00:30:26
    INDEX 63 00:30:28
    INDEX 64 00:31:21
    INDEX 65 00:31:23
    INDEX 66 00:32:00
    INDEX 67 00:32:02
    INDEX 68 00:33:00
    INDEX 69 00:33:02
    INDEX 70 00:33:45
    INDEX 71 00:33:47
    INDEX 72 00:34:14
    INDEX 73 00:34:16
    INDEX 74 00:35:09
    INDEX 75 00:35:11
    INDEX 76 00:35:49
    INDEX 77 00:35:51
    INDEX 78 00:36:18
    INDEX 79 00:36:20
    INDEX 80 00:37:40
    INDEX 81 00:37:42
    INDEX 82 00:39:25
    INDEX 83 00:39:27
    INDEX 84 00:41:11
    INDEX 85 00:41:13
    INDEX 86 00:42:66
    INDEX 87 00:42:68
    INDEX 88 00:44:60
FILE "AI Shougi 2 (Japan) (Track 6).bin" BINARY
  TRACK 06 AUDIO
    INDEX 00 00:00:00
    INDEX 01 00:02:00
    INDEX 02 00:03:01
    INDEX 03 00:03:03
    INDEX 04 00:04:04
    INDEX 05 00:04:06
    INDEX 06 00:05:06
    INDEX 07 00:05:08
    INDEX 08 00:06:12
    INDEX 09 00:06:14
    INDEX 10 00:07:14
    INDEX 11 00:07:16
    INDEX 12 00:08:00
    INDEX 13 00:08:02
    INDEX 14 00:09:02
    INDEX 15 00:09:04
    INDEX 16 00:09:74
    INDEX 17 00:10:01
    INDEX 18 00:10:70
    INDEX 19 00:10:72
    INDEX 20 00:11:71
    INDEX 21 00:11:73
    INDEX 22 00:12:74
    INDEX 23 00:13:01
    INDEX 24 00:14:02
    INDEX 25 00:14:04
    INDEX 26 00:14:71
    INDEX 27 00:14:73
    INDEX 28 00:16:06
    INDEX 29 00:16:08
    INDEX 30 00:17:10
    INDEX 31 00:17:12
    INDEX 32 00:18:10
    INDEX 33 00:18:12
    INDEX 34 00:19:10
    INDEX 35 00:19:12
    INDEX 36 00:20:06
    INDEX 37 00:20:08
    INDEX 38 00:21:09
    INDEX 39 00:21:11
    INDEX 40 00:22:02
    INDEX 41 00:22:04
    INDEX 42 00:22:73
    INDEX 43 00:23:00
    INDEX 44 00:23:72
    INDEX 45 00:23:74
    INDEX 46 00:24:74
    INDEX 47 00:25:01
    INDEX 48 00:26:01
    INDEX 49 00:26:03
    INDEX 50 00:27:04
    INDEX 51 00:27:06
    INDEX 52 00:28:07
    INDEX 53 00:28:09
    INDEX 54 00:29:04
    INDEX 55 00:29:06
    INDEX 56 00:30:07
    INDEX 57 00:30:09
    INDEX 58 00:30:73
    INDEX 59 00:31:00
    INDEX 60 00:32:01
    INDEX 61 00:32:03
    INDEX 62 00:33:05
    INDEX 63 00:33:07
    INDEX 64 00:34:16
    INDEX 65 00:34:18
    INDEX 66 00:35:19
    INDEX 67 00:35:21
    INDEX 68 00:36:21
    INDEX 69 00:36:23
    INDEX 70 00:37:19
    INDEX 71 00:37:21
    INDEX 72 00:38:17
FILE "AI Shougi 2 (Japan) (Track 7).bin" BINARY
  TRACK 07 AUDIO
    INDEX 00 00:00:00
    INDEX 01 00:02:00
    INDEX 02 00:02:74
    INDEX 03 00:03:01
    INDEX 04 00:04:04
    INDEX 05 00:04:06
    INDEX 06 00:05:07
    INDEX 07 00:05:09
    INDEX 08 00:06:08
    INDEX 09 00:06:10
    INDEX 10 00:07:16
    INDEX 11 00:07:18
    INDEX 12 00:08:18
    INDEX 13 00:08:20
    INDEX 14 00:09:22
    INDEX 15 00:09:24
    INDEX 16 00:10:23
    INDEX 17 00:10:25
    INDEX 18 00:11:18
    INDEX 19 00:11:20
    INDEX 20 00:12:21
    INDEX 21 00:12:23
    INDEX 22 00:13:33
    INDEX 23 00:13:35
    INDEX 24 00:14:31
    INDEX 25 00:14:33
    INDEX 26 00:15:31
    INDEX 27 00:15:33
    INDEX 28 00:16:38
    INDEX 29 00:16:40
    INDEX 30 00:17:40
    INDEX 31 00:17:42
    INDEX 32 00:18:37
    INDEX 33 00:18:39
    INDEX 34 00:19:41
    INDEX 35 00:19:43
    INDEX 36 00:20:46
    INDEX 37 00:20:48
    INDEX 38 00:21:37
    INDEX 39 00:21:39
    INDEX 40 00:22:39
    INDEX 41 00:22:41
    INDEX 42 00:23:49
    INDEX 43 00:23:51
    INDEX 44 00:24:56
    INDEX 45 00:24:58
    INDEX 46 00:25:66
    INDEX 47 00:25:68
    INDEX 48 00:26:69
    INDEX 49 00:26:71
    INDEX 50 00:27:72
    INDEX 51 00:27:74
    INDEX 52 00:28:73
    INDEX 53 00:29:00
    INDEX 54 00:30:01
    INDEX 55 00:30:03
    INDEX 56 00:31:08
    INDEX 57 00:31:10
    INDEX 58 00:32:22
    INDEX 59 00:32:24
    INDEX 60 00:33:24
    INDEX 61 00:33:26
    INDEX 62 00:34:27
    INDEX 63 00:34:29
    INDEX 64 00:35:27
    INDEX 65 00:35:29
    INDEX 66 00:36:34
    INDEX 67 00:36:36
    INDEX 68 00:37:37
    INDEX 69 00:37:39
    INDEX 70 00:38:48
    INDEX 71 00:38:50
    INDEX 72 00:39:58
    INDEX 73 00:39:60
    INDEX 74 00:39:62
FILE "AI Shougi 2 (Japan) (Track 8).bin" BINARY
  TRACK 08 AUDIO
    INDEX 00 00:00:00
    INDEX 01 00:02:00
    INDEX 02 00:03:00
    INDEX 03 00:03:02
    INDEX 04 00:04:08
    INDEX 05 00:04:10
    INDEX 06 00:05:16
    INDEX 07 00:05:18
    INDEX 08 00:06:19
    INDEX 09 00:06:21
    INDEX 10 00:07:20
    INDEX 11 00:07:22
    INDEX 12 00:08:31
    INDEX 13 00:08:33
    INDEX 14 00:09:38
    INDEX 15 00:09:40
    INDEX 16 00:10:52
    INDEX 17 00:10:54
    INDEX 18 00:11:55
    INDEX 19 00:11:57
    INDEX 20 00:13:29
    INDEX 21 00:13:31
    INDEX 22 00:15:20
    INDEX 23 00:15:22
    INDEX 24 00:16:59
    INDEX 25 00:16:61
    INDEX 26 00:17:67
    INDEX 27 00:17:69
    INDEX 28 00:18:53
    INDEX 29 00:18:55
    INDEX 30 00:19:39
    INDEX 31 00:19:41
    INDEX 32 00:20:25
    INDEX 33 00:20:27
    INDEX 34 00:21:15
    INDEX 35 00:21:17
    INDEX 36 00:21:72
    INDEX 37 00:21:74
    INDEX 38 00:22:53
    INDEX 39 00:22:55
    INDEX 40 00:23:26
    INDEX 41 00:23:28
    INDEX 42 00:23:72
    INDEX 43 00:23:74
    INDEX 44 00:24:66
    INDEX 45 00:24:68
    INDEX 46 00:25:60
    INDEX 47 00:25:62
    INDEX 48 00:26:37
    INDEX 49 00:26:39
    INDEX 50 00:27:27
    INDEX 51 00:27:29
    INDEX 52 00:28:17
    INDEX 53 00:28:19
    INDEX 54 00:28:66
    INDEX 55 00:28:68
    INDEX 56 00:29:40
    INDEX 57 00:29:42
    INDEX 58 00:30:45
    INDEX 59 00:30:47
    INDEX 60 00:31:46
    INDEX 61 00:31:48
    INDEX 62 00:32:48
    INDEX 63 00:32:50
    INDEX 64 00:33:51
    INDEX 65 00:33:53
    INDEX 66 00:34:30
    INDEX 67 00:34:32
    INDEX 68 00:35:38
    INDEX 69 00:35:40
    INDEX 70 00:36:12
    INDEX 71 00:36:14
    INDEX 72 00:36:65
    INDEX 73 00:36:67
    INDEX 74 00:37:61
    INDEX 75 00:37:63
    INDEX 76 00:38:27
    INDEX 77 00:38:29
    INDEX 78 00:39:00
    INDEX 79 00:39:02
    INDEX 80 00:40:14
    INDEX 81 00:40:16
    INDEX 82 00:41:57
    INDEX 83 00:41:59
    INDEX 84 00:44:45
    INDEX 85 00:44:47
    INDEX 86 00:47:30
    INDEX 87 00:47:32
    INDEX 88 00:49:45
FILE "AI Shougi 2 (Japan) (Track 9).bin" BINARY
  TRACK 09 AUDIO
    INDEX 00 00:00:00
    INDEX 01 00:02:00
